<?xml version="1.0" standalone="no"?>
<!DOCTYPE svg PUBLIC "-//W3C//DTD SVG 20010904//EN"
 "http://www.w3.org/TR/2001/REC-SVG-20010904/DTD/svg10.dtd">
<svg version="1.0" xmlns="http://www.w3.org/2000/svg"
 width="512.000000pt" height="512.000000pt" viewBox="0 0 512.000000 512.000000"
 preserveAspectRatio="xMidYMid meet">
<metadata>
Created by potrace 1.14, written by Peter Selinger 2001-2017
</metadata>
<g transform="translate(0.000000,512.000000) scale(0.100000,-0.100000)"
fill="#000000" stroke="none">
<path d="M445 4870 c-90 -22 -114 -32 -178 -73 -111 -72 -196 -181 -239 -305
-20 -58 -23 -87 -23 -212 0 -169 11 -205 89 -288 102 -109 259 -135 396 -67
25 13 58 36 73 53 l28 29 47 -44 c91 -87 195 -123 340 -117 l92 4 0 -25 c0
-33 -1 -28 17 -87 83 -281 356 -447 643 -393 32 6 37 3 50 -21 22 -40 113
-117 173 -146 46 -23 129 -45 150 -40 4 1 7 -4 8 -10 1 -18 1 -1458 0 -1483
-1 -19 -8 -20 -120 -20 l-119 0 -53 104 c-70 135 -91 154 -193 180 -44 12 -92
25 -105 29 -25 7 -32 24 -154 361 -63 171 -110 211 -255 211 -64 0 -121 -18
-156 -48 -10 -9 -62 -82 -114 -162 -52 -80 -100 -148 -106 -152 -6 -4 -41 -8
-79 -8 -120 0 -127 -6 -395 -336 -60 -76 -67 -111 -26 -143 14 -11 30 -21 36
-23 8 -3 12 -49 12 -142 1 -134 1 -137 -22 -143 -29 -7 -52 -40 -52 -73 0 -27
36 -70 58 -70 7 0 12 -3 13 -7 1 -5 2 -224 3 -488 l1 -480 2275 0 2275 0 1
420 c2 576 2 555 17 555 22 0 57 44 57 71 0 29 -26 69 -45 69 -8 0 -17 5 -20
11 -4 6 -7 86 -7 177 1 271 1 272 15 272 22 0 57 40 57 65 0 21 -36 113 -110
280 -10 22 -39 91 -66 154 -72 170 -107 197 -256 200 -150 3 -136 13 -433
-284 l-265 -265 -208 -1 c-114 0 -218 -2 -231 -5 -41 -8 -82 -40 -194 -153
-60 -60 -116 -116 -125 -124 -16 -15 -17 5 -16 306 1 177 -3 333 -8 345 -4 13
-21 29 -37 35 l-29 11 1 98 1 98 33 20 c18 11 34 25 35 32 0 7 2 123 4 258 1
135 3 248 3 251 1 4 12 7 25 7 92 0 263 107 313 196 8 15 17 16 62 8 161 -29
340 24 464 139 93 85 146 181 172 314 8 43 16 59 26 56 8 -1 46 -5 86 -7 123
-6 238 37 329 121 l44 41 22 -24 c51 -54 166 -101 233 -96 106 9 161 31 230
95 24 22 56 65 71 97 28 55 29 63 29 197 0 121 -3 150 -24 213 -51 155 -166
284 -313 351 -115 52 -72 51 -1691 51 -1611 -1 -1534 2 -1560 -51 -12 -23 -17
-24 -115 -25 -91 0 -102 2 -102 17 0 10 -12 27 -27 38 -26 21 -35 21 -397 20
-319 -1 -381 -3 -441 -19z"/>
<path d="M4502 3760 c-25 -24 -24 -18 -26 -112 -2 -89 7 -122 40 -137 38 -17
58 -13 85 17 23 25 25 34 24 107 -3 104 -2 98 -25 123 -26 28 -69 28 -98 2z"/>
<path d="M267 3729 c-57 -16 -56 -12 -57 -412 l0 -368 25 -24 c31 -32 69 -32
100 -1 l25 25 -1 363 c0 298 -3 367 -15 385 -20 31 -44 41 -77 32z"/>
<path d="M4842 3715 l-27 -23 0 -218 c-1 -121 2 -229 6 -241 5 -12 19 -29 33
-38 35 -23 91 -5 103 33 5 15 9 125 9 244 -1 209 -2 218 -23 239 -30 30 -68
32 -101 4z"/>
<path d="M583 3619 c-41 -15 -49 -49 -44 -187 1 -34 46 -71 79 -66 51 9 70 44
71 129 0 63 -3 79 -22 100 -25 29 -52 36 -84 24z"/>
<path d="M3878 3314 c-16 -8 -29 -22 -30 -32 -7 -84 -3 -731 5 -747 35 -69
136 -45 138 34 0 14 0 181 0 371 l1 345 -27 22 c-30 27 -49 28 -87 7z"/>
<path d="M1147 3288 c-30 -24 -35 -55 -28 -180 3 -54 84 -76 125 -35 21 21 23
31 21 107 -1 73 -4 85 -24 102 -27 21 -70 24 -94 6z"/>
<path d="M3473 3190 c-34 -14 -43 -42 -43 -133 0 -70 3 -89 21 -111 29 -37 80
-36 109 1 19 25 21 38 18 120 -3 99 -13 120 -59 128 -13 2 -34 0 -46 -5z"/>
<path d="M1582 3125 c-17 -22 -19 -40 -18 -171 1 -140 2 -146 25 -165 46 -37
120 -10 122 45 1 40 1 152 0 214 -1 48 -6 67 -21 82 -29 29 -83 27 -108 -5z"/>
<path d="M1613 2629 c-36 -13 -52 -49 -50 -106 4 -76 42 -111 100 -90 32 11
45 37 48 94 3 51 -8 81 -34 95 -29 16 -38 17 -64 7z"/>
</g>
</svg>
